<svg xmlns="http://www.w3.org/2000/svg" width="760" height="340" viewBox="0 0 760 340">
<style>text{font-family:ui-monospace,Menlo,monospace;font-size:12px;fill:#e6edf3}.title{font-size:14px;font-weight:600}.sub{fill:#8b949e;font-size:11px}.bar-nr{fill:#f85149}.bar-rd{fill:#3fb950}.grid{stroke:#30363d;stroke-width:1}.axis{fill:#8b949e}</style>
<rect width="760" height="340" fill="#0d1117"/>
<text x="24" y="28" class="title">Cognitive waste rate (strict aggregate, n=3)</text>
<text x="24" y="46" class="sub">Headline scorer metric · prevents repeated intelligence spend · lower is better</text>
<rect x="24" y="56" width="12" height="12" class="bar-nr"/>
<text x="42" y="66" class="axis">No feedback</text>
<rect x="140" y="56" width="12" height="12" class="bar-rd"/>
<text x="158" y="66" class="axis">+ Radar</text>
<rect x="141.3" y="100.0" width="28" height="200.0" class="bar-nr"/>
<text x="155.3" y="96.0" text-anchor="middle" class="axis">0.55</text>
<rect x="177.3" y="288.7" width="28" height="11.3" class="bar-rd"/>
<text x="191.3" y="284.6654478976234" text-anchor="middle" class="axis">0.03</text>
<text x="173.3" y="318" text-anchor="middle" class="axis">005</text>
<rect x="368.0" y="100.0" width="28" height="200.0" class="bar-nr"/>
<text x="382.0" y="96.0" text-anchor="middle" class="axis">0.06</text>
<rect x="404.0" y="248.4" width="28" height="51.6" class="bar-rd"/>
<text x="418.0" y="244.38709677419354" text-anchor="middle" class="axis">0.02</text>
<text x="400.0" y="318" text-anchor="middle" class="axis">006</text>
<rect x="594.7" y="100.0" width="28" height="200.0" class="bar-nr"/>
<text x="608.7" y="96.0" text-anchor="middle" class="axis">0.09</text>
<rect x="630.7" y="166.0" width="28" height="134.0" class="bar-rd"/>
<text x="644.7" y="161.95744680851064" text-anchor="middle" class="axis">0.06</text>
<text x="626.7" y="318" text-anchor="middle" class="axis">007</text>
<line x1="50" y1="300" x2="740" y2="300" class="grid"/>
</svg>